# xmcd
#
# Track frame offsets: 
#        150
#        18525
#        31403
#        44913
#        67110
#        76919
#        94980
#        110550
#        128373
#        142075
#        154284
#        169923
#        190511
#        213882
#        235559
#        250224
#
# Disc length: 3677 seconds
#
# Revision: 1
# Processed by: cddbd v1.5.2PL0 Copyright (c) Steve Scherf et al.
# Submitted via: ExactAudioCopy v1.3
#
DISCID=dd0e5b10
DTITLE=The New Mastersounds - an introduction to The New Mastersounds
DYEAR=2007
DGENRE=Jazz
TTITLE0=Turn This Thing Around
TTITLE1=It's All Right Now
TTITLE2=Can't Hold Me Down
TTITLE3=Idle Time (feat. LSK)
TTITLE4=Rope-A-Dope
TTITLE5=Coming Up Roses
TTITLE6=The Tin Drum (feat. Sam Bell)
TTITLE7=Be Yourself
TTITLE8=102 %
TTITLE9=The Rooster (feat. Cleve Freckleton)
TTITLE10=Do What You Gotta Do
TTITLE11=Colorado Sun (Jesse's Backyard)
TTITLE12=Your Love Is Mine (feat. Corinne Bailey Rae)
TTITLE13=Barca
TTITLE14=Forgiveness
TTITLE15=Your Love Is Mine (Fred Everything Mix)
EXTD=YEAR: 2007
EXTT0=
EXTT1=
EXTT2=
EXTT3=
EXTT4=
EXTT5=
EXTT6=
EXTT7=
EXTT8=
EXTT9=
EXTT10=
EXTT11=
EXTT12=
EXTT13=
EXTT14=
EXTT15=
PLAYORDER=
